<svg width="91" height="16" viewBox="0 0 91 16" fill="none" xmlns="http://www.w3.org/2000/svg">
<path d="M3 9.18182C3 8.56061 3.15152 7.99432 3.45455 7.48295C3.75758 6.97159 4.16477 6.56439 4.67614 6.26136C5.1875 5.95833 5.75379 5.80682 6.375 5.80682C6.91288 5.80682 7.40909 5.92235 7.86364 6.15341C8.32197 6.38447 8.70076 6.70076 9 7.10227C9.29924 7.5 9.48485 7.95076 9.55682 8.45455H8.18182C8.10606 8.06439 7.89583 7.74621 7.55114 7.5C7.20644 7.25 6.81439 7.125 6.375 7.125C5.99621 7.125 5.65152 7.2178 5.34091 7.40341C5.0303 7.58902 4.7822 7.83712 4.59659 8.14773C4.41098 8.45833 4.31818 8.80303 4.31818 9.18182C4.31818 9.56061 4.41098 9.9053 4.59659 10.2159C4.7822 10.5265 5.0303 10.7746 5.34091 10.9602C5.65152 11.1458 5.99621 11.2386 6.375 11.2386C6.81439 11.2386 7.18561 11.1155 7.48864 10.8693C7.79545 10.6193 7.98864 10.2992 8.06818 9.90909H9.44318C9.37121 10.4129 9.19508 10.8655 8.91477 11.267C8.63447 11.6648 8.27462 11.9792 7.83523 12.2102C7.39962 12.4413 6.91288 12.5568 6.375 12.5568C5.75379 12.5568 5.1875 12.4053 4.67614 12.1023C4.16477 11.7992 3.75758 11.392 3.45455 10.8807C3.15152 10.3693 3 9.80303 3 9.18182ZM6.31818 15.1818C5.49242 15.1818 4.71591 15.0265 3.98864 14.7159C3.26515 14.4053 2.62689 13.9754 2.07386 13.4261C1.52462 12.8731 1.0928 12.2348 0.778409 11.5114C0.467803 10.7879 0.314394 10.0114 0.318182 9.18182C0.32197 8.35227 0.479167 7.57576 0.789773 6.85227C1.10417 6.12879 1.53598 5.49242 2.08523 4.94318C2.63447 4.39015 3.27083 3.95833 3.99432 3.64773C4.7178 3.33712 5.49242 3.18182 6.31818 3.18182C7.14773 3.18182 7.92424 3.33712 8.64773 3.64773C9.375 3.95833 10.0114 4.39015 10.5568 4.94318C11.1061 5.49242 11.536 6.12879 11.8466 6.85227C12.1572 7.57576 12.3144 8.35227 12.3182 9.18182C12.322 10.0114 12.1686 10.7879 11.858 11.5114C11.5473 12.2348 11.1174 12.8731 10.5682 13.4261C10.0189 13.9754 9.38068 14.4053 8.65341 14.7159C7.92614 15.0265 7.14773 15.1818 6.31818 15.1818ZM6.31818 13.8636C6.96591 13.8636 7.57386 13.7424 8.14205 13.5C8.71023 13.2576 9.20833 12.9223 9.63636 12.4943C10.0644 12.0663 10.3996 11.5701 10.642 11.0057C10.8845 10.4375 11.0038 9.83144 11 9.1875C10.9962 8.53977 10.8731 7.93182 10.6307 7.36364C10.3883 6.79545 10.053 6.29735 9.625 5.86932C9.19697 5.44129 8.70076 5.10606 8.13636 4.86364C7.57197 4.62121 6.96591 4.5 6.31818 4.5C5.67424 4.5 5.07008 4.62121 4.50568 4.86364C3.94129 5.10606 3.44508 5.44318 3.01705 5.875C2.58902 6.30303 2.25189 6.80114 2.00568 7.36932C1.76326 7.93371 1.64015 8.53977 1.63636 9.1875C1.63258 9.82765 1.75189 10.4318 1.99432 11C2.23674 11.5644 2.57197 12.0606 3 12.4886C3.43182 12.9167 3.92992 13.2538 4.49432 13.5C5.0625 13.7424 5.67045 13.8636 6.31818 13.8636ZM20.027 3.36364L23.4815 13.1591H23.6179L27.0724 3.36364H28.5497L24.277 15H22.8224L18.5497 3.36364H20.027ZM30.3622 15V3.36364H37.3849V4.61364H31.7713V8.54545H37.0213V9.79545H31.7713V13.75H37.4759V15H30.3622ZM32.2259 1.90909C31.9872 1.90909 31.7751 1.81818 31.5895 1.63636C31.4077 1.45076 31.3168 1.23864 31.3168 1C31.3168 0.738636 31.4077 0.522727 31.5895 0.352272C31.7751 0.17803 31.9872 0.090909 32.2259 0.090909C32.4872 0.090909 32.7031 0.17803 32.8736 0.352272C33.0478 0.522727 33.1349 0.738636 33.1349 1C33.1349 1.23864 33.0478 1.45076 32.8736 1.63636C32.7031 1.81818 32.4872 1.90909 32.2259 1.90909ZM35.4986 1.90909C35.2599 1.90909 35.0478 1.81818 34.8622 1.63636C34.6804 1.45076 34.5895 1.23864 34.5895 1C34.5895 0.738636 34.6804 0.522727 34.8622 0.352272C35.0478 0.17803 35.2599 0.090909 35.4986 0.090909C35.7599 0.090909 35.9759 0.17803 36.1463 0.352272C36.3205 0.522727 36.4077 0.738636 36.4077 1C36.4077 1.23864 36.3205 1.45076 36.1463 1.63636C35.9759 1.81818 35.7599 1.90909 35.4986 1.90909ZM39.9247 15V3.36364H43.8565C44.7656 3.36364 45.5118 3.51894 46.0952 3.82955C46.6785 4.13636 47.1103 4.55871 47.3906 5.09659C47.6709 5.63447 47.8111 6.24621 47.8111 6.93182C47.8111 7.61742 47.6709 8.22538 47.3906 8.75568C47.1103 9.28598 46.6804 9.70265 46.1009 10.0057C45.5213 10.3049 44.7808 10.4545 43.8793 10.4545H40.6974V9.18182H43.8338C44.455 9.18182 44.955 9.09091 45.3338 8.90909C45.7164 8.72727 45.9929 8.4697 46.1634 8.13636C46.3376 7.79924 46.4247 7.39773 46.4247 6.93182C46.4247 6.46591 46.3376 6.05871 46.1634 5.71023C45.9891 5.36174 45.7107 5.0928 45.3281 4.90341C44.9455 4.71023 44.4399 4.61364 43.8111 4.61364H41.3338V15H39.9247ZM45.402 9.77273L48.2656 15H46.6293L43.8111 9.77273H45.402ZM56.5227 6.27273C56.4545 5.69697 56.178 5.25 55.6932 4.93182C55.2083 4.61364 54.6136 4.45455 53.9091 4.45455C53.3939 4.45455 52.9432 4.53788 52.5568 4.70455C52.1742 4.87121 51.875 5.10038 51.6591 5.39205C51.447 5.68371 51.3409 6.01515 51.3409 6.38636C51.3409 6.69697 51.4148 6.96401 51.5625 7.1875C51.714 7.4072 51.9072 7.59091 52.142 7.73864C52.3769 7.88258 52.6231 8.00189 52.8807 8.09659C53.1383 8.1875 53.375 8.26136 53.5909 8.31818L54.7727 8.63636C55.0758 8.71591 55.4129 8.82576 55.7841 8.96591C56.1591 9.10606 56.517 9.29735 56.858 9.53977C57.2027 9.77841 57.4867 10.0852 57.7102 10.4602C57.9337 10.8352 58.0455 11.2955 58.0455 11.8409C58.0455 12.4697 57.8807 13.0379 57.5511 13.5455C57.2254 14.053 56.7481 14.4564 56.1193 14.7557C55.4943 15.0549 54.7348 15.2045 53.8409 15.2045C53.0076 15.2045 52.286 15.0701 51.6761 14.8011C51.0701 14.5322 50.5928 14.1572 50.2443 13.6761C49.8996 13.1951 49.7045 12.6364 49.6591 12H51.1136C51.1515 12.4394 51.2992 12.803 51.5568 13.0909C51.8182 13.375 52.1477 13.5871 52.5455 13.7273C52.947 13.8636 53.3788 13.9318 53.8409 13.9318C54.3788 13.9318 54.8617 13.8447 55.2898 13.6705C55.7178 13.4924 56.0568 13.2462 56.3068 12.9318C56.5568 12.6136 56.6818 12.2424 56.6818 11.8182C56.6818 11.4318 56.5739 11.1174 56.358 10.875C56.142 10.6326 55.858 10.4356 55.5057 10.2841C55.1534 10.1326 54.7727 10 54.3636 9.88636L52.9318 9.47727C52.0227 9.21591 51.303 8.8428 50.7727 8.35795C50.2424 7.87311 49.9773 7.23864 49.9773 6.45455C49.9773 5.80303 50.1534 5.23485 50.5057 4.75C50.8617 4.26136 51.339 3.88258 51.9375 3.61364C52.5398 3.34091 53.2121 3.20455 53.9545 3.20455C54.7045 3.20455 55.3712 3.33901 55.9545 3.60795C56.5379 3.87311 57 4.23674 57.3409 4.69886C57.6856 5.16098 57.8674 5.68561 57.8864 6.27273H56.5227ZM59.7259 4.61364V3.36364H68.4531V4.61364H64.794V15H63.3849V4.61364H59.7259ZM70.6278 15V3.36364H72.0369V9.13636H72.1733L77.4006 3.36364H79.2415L74.3551 8.61364L79.2415 15H77.5369L73.4915 9.59091L72.0369 11.2273V15H70.6278ZM81.5426 15H80.0653L84.3381 3.36364H85.7926L90.0653 15H88.5881L85.1108 5.20455H85.0199L81.5426 15ZM82.0881 10.4545H88.0426V11.7045H82.0881V10.4545Z" fill="#F5F5F5"/>
</svg>
